<svg width="54" height="54" fill="none" xmlns="http://www.w3.org/2000/svg"><path d="M0 6.031C0 2.874 2.592.313 5.786.313h11.571c3.194 0 5.786 2.561 5.786 5.718V17.47c0 3.157-2.592 5.718-5.786 5.718H5.786C2.592 23.188 0 20.627 0 17.47V6.03zm7.714 1.907v7.625h7.715V7.936H7.714zM0 36.53c0-3.157 2.592-5.718 5.786-5.718h11.571c3.194 0 5.786 2.561 5.786 5.718V47.97c0 3.157-2.592 5.718-5.786 5.718H5.786C2.592 53.688 0 51.127 0 47.97V36.53zm7.714 1.907v7.624h7.715v-7.624H7.714zM36.643.312h11.571C51.408.313 54 2.874 54 6.032v11.437c0 3.157-2.592 5.718-5.786 5.718H36.643c-3.194 0-5.786-2.561-5.786-5.718V6.03c0-3.157 2.592-5.718 5.786-5.718zm9.643 7.625H38.57v7.625h7.715V7.939zM30.857 32.72c0-1.049.868-1.907 1.929-1.907H40.5c1.06 0 1.929.858 1.929 1.907 0 1.048.867 1.906 1.928 1.906h3.857c1.061 0 1.929-.858 1.929-1.906 0-1.049.868-1.907 1.928-1.907 1.061 0 1.929.858 1.929 1.907v11.437c0 1.049-.868 1.907-1.929 1.907h-7.714c-1.06 0-1.928-.858-1.928-1.907 0-1.048-.868-1.906-1.929-1.906-1.06 0-1.929.858-1.929 1.906v7.625c0 1.049-.867 1.907-1.928 1.907h-3.857c-1.061 0-1.929-.858-1.929-1.907V32.72zm13.5 20.968a1.94 1.94 0 0 1-1.364-.558 1.896 1.896 0 0 1-.564-1.348c0-.505.203-.99.564-1.348a1.94 1.94 0 0 1 1.364-.558c.512 0 1.002.2 1.364.558.362.358.565.843.565 1.348 0 .506-.203.99-.565 1.348a1.94 1.94 0 0 1-1.364.559zm7.714 0a1.94 1.94 0 0 1-1.363-.558 1.895 1.895 0 0 1 0-2.696 1.94 1.94 0 0 1 1.363-.558c.512 0 1.003.2 1.364.558.362.358.565.843.565 1.348 0 .506-.203.99-.565 1.348a1.94 1.94 0 0 1-1.364.559z" fill="#D9D9D9"/></svg>